<svg width="252" height="97" viewBox="0 0 252 97" fill="none" xmlns="http://www.w3.org/2000/svg">
<path d="M45.3463 38.72C45.3463 39.52 44.9463 39.92 44.1463 39.92H30.1063C29.7863 39.92 29.6263 40.08 29.6263 40.4V78.32C29.6263 82.4 30.5463 85.28 32.3863 86.96C34.2263 88.56 37.1863 89.36 41.2663 89.36H44.0263C44.8263 89.36 45.2263 89.76 45.2263 90.56V93.8C45.2263 94.6 44.8263 95 44.0263 95L40.4263 95.12C34.8263 95.12 30.5863 94.04 27.7063 91.88C24.9063 89.72 23.4663 85.76 23.3863 80V40.4C23.3863 40.08 23.2263 39.92 22.9063 39.92H15.7063C14.9063 39.92 14.5063 39.52 14.5063 38.72V35.72C14.5063 34.92 14.9063 34.52 15.7063 34.52H22.9063C23.2263 34.52 23.3863 34.36 23.3863 34.04V20.36C23.3863 19.56 23.7863 19.16 24.5863 19.16H28.4263C29.2263 19.16 29.6263 19.56 29.6263 20.36V34.04C29.6263 34.36 29.7863 34.52 30.1063 34.52H44.1463C44.9463 34.52 45.3463 34.92 45.3463 35.72V38.72ZM110.551 12.44C110.551 12.04 110.671 11.72 110.911 11.48C111.231 11.16 111.591 11 111.991 11H126.031C126.431 11 126.751 11.16 126.991 11.48C127.311 11.72 127.471 12.04 127.471 12.44V93.56C127.471 93.96 127.311 94.32 126.991 94.64C126.751 94.88 126.431 95 126.031 95H111.991C111.591 95 111.231 94.88 110.911 94.64C110.671 94.32 110.551 93.96 110.551 93.56V89.6C110.551 89.36 110.471 89.24 110.311 89.24C110.151 89.16 109.991 89.2 109.831 89.36C106.471 93.76 101.871 95.96 96.0312 95.96C90.4313 95.96 85.5913 94.4 81.5113 91.28C77.5113 88.16 74.6313 83.88 72.8713 78.44C71.5113 74.28 70.8313 69.44 70.8313 63.92C70.8313 58.24 71.5513 53.28 72.9913 49.04C74.8313 43.92 77.7113 39.88 81.6313 36.92C85.6313 33.88 90.5513 32.36 96.3913 32.36C102.151 32.36 106.631 34.36 109.831 38.36C109.991 38.6 110.151 38.68 110.311 38.6C110.471 38.52 110.551 38.36 110.551 38.12V12.44ZM108.031 76.28C109.631 73.32 110.431 69.28 110.431 64.16C110.431 58.8 109.551 54.6 107.791 51.56C105.951 48.44 103.271 46.88 99.7513 46.88C95.9913 46.88 93.1513 48.44 91.2313 51.56C89.2313 54.68 88.2313 58.92 88.2313 64.28C88.2313 69.08 89.0713 73.08 90.7513 76.28C92.7513 79.72 95.7113 81.44 99.6313 81.44C103.231 81.44 106.031 79.72 108.031 76.28Z" fill="black"/>
<path d="M32.3863 86.96L31.712 87.6985L31.7209 87.7067L31.7301 87.7146L32.3863 86.96ZM44.0263 95V94H44.0096L43.9929 94.0006L44.0263 95ZM40.4263 95.12V96.12H40.4429L40.4596 96.1194L40.4263 95.12ZM27.7063 91.88L27.0954 92.6719L27.1063 92.68L27.7063 91.88ZM23.3863 80H22.3862L22.3864 80.0139L23.3863 80ZM44.3463 38.72C44.3463 38.9659 44.2855 38.9666 44.3391 38.9129C44.3928 38.8592 44.3921 38.92 44.1463 38.92V40.92C44.7004 40.92 45.2997 40.7808 45.7534 40.3271C46.207 39.8734 46.3463 39.2741 46.3463 38.72H44.3463ZM44.1463 38.92H30.1063V40.92H44.1463V38.92ZM30.1063 38.92C29.7921 38.92 29.3728 38.9992 29.0391 39.3329C28.7055 39.6666 28.6263 40.0859 28.6263 40.4H30.6263C30.6263 40.4003 30.6266 40.4414 30.6049 40.5062C30.5817 40.5759 30.5355 40.6649 30.4534 40.7471C30.3712 40.8293 30.2822 40.8754 30.2125 40.8987C30.1476 40.9203 30.1066 40.92 30.1063 40.92V38.92ZM28.6263 40.4V78.32H30.6263V40.4H28.6263ZM28.6263 78.32C28.6263 82.5079 29.5641 85.7374 31.712 87.6985L33.0605 86.2215C31.5284 84.8226 30.6263 82.2921 30.6263 78.32H28.6263ZM31.7301 87.7146C33.8401 89.5494 37.0953 90.36 41.2663 90.36V88.36C37.2772 88.36 34.6124 87.5706 33.0424 86.2054L31.7301 87.7146ZM41.2663 90.36H44.0263V88.36H41.2663V90.36ZM44.0263 90.36C44.2721 90.36 44.2728 90.4208 44.2191 90.3671C44.1655 90.3134 44.2263 90.3141 44.2263 90.56H46.2263C46.2263 90.0059 46.087 89.4066 45.6334 88.9529C45.1797 88.4992 44.5804 88.36 44.0263 88.36V90.36ZM44.2263 90.56V93.8H46.2263V90.56H44.2263ZM44.2263 93.8C44.2263 94.0459 44.1655 94.0466 44.2191 93.9929C44.2728 93.9392 44.2721 94 44.0263 94V96C44.5804 96 45.1797 95.8608 45.6334 95.4071C46.087 94.9534 46.2263 94.3541 46.2263 93.8H44.2263ZM43.9929 94.0006L40.3929 94.1206L40.4596 96.1194L44.0596 95.9994L43.9929 94.0006ZM40.4263 94.12C34.93 94.12 30.9407 93.0558 28.3063 91.08L27.1063 92.68C30.2318 95.0242 34.7225 96.12 40.4263 96.12V94.12ZM28.3171 91.0882C25.8772 89.206 24.4646 85.6312 24.3862 79.9861L22.3864 80.0139C22.4679 85.8888 23.9353 90.234 27.0955 92.6718L28.3171 91.0882ZM24.3863 80V40.4H22.3863V80H24.3863ZM24.3863 40.4C24.3863 40.0859 24.307 39.6666 23.9734 39.3329C23.6397 38.9992 23.2204 38.92 22.9063 38.92V40.92C22.9059 40.92 22.8649 40.9203 22.8 40.8987C22.7303 40.8754 22.6413 40.8293 22.5591 40.7471C22.477 40.6649 22.4308 40.5759 22.4076 40.5062C22.3859 40.4414 22.3863 40.4003 22.3863 40.4H24.3863ZM22.9063 38.92H15.7063V40.92H22.9063V38.92ZM15.7063 38.92C15.4604 38.92 15.4597 38.8592 15.5134 38.9129C15.567 38.9666 15.5063 38.9659 15.5063 38.72H13.5063C13.5063 39.2741 13.6455 39.8734 14.0991 40.3271C14.5528 40.7808 15.1521 40.92 15.7063 40.92V38.92ZM15.5063 38.72V35.72H13.5063V38.72H15.5063ZM15.5063 35.72C15.5063 35.4741 15.567 35.4734 15.5134 35.5271C15.4597 35.5808 15.4604 35.52 15.7063 35.52V33.52C15.1521 33.52 14.5528 33.6592 14.0991 34.1129C13.6455 34.5666 13.5063 35.1659 13.5063 35.72H15.5063ZM15.7063 35.52H22.9063V33.52H15.7063V35.52ZM22.9063 35.52C23.2204 35.52 23.6397 35.4408 23.9734 35.1071C24.307 34.7734 24.3863 34.3541 24.3863 34.04H22.3863C22.3863 34.0396 22.3859 33.9986 22.4076 33.9338C22.4308 33.8641 22.477 33.7751 22.5591 33.6929C22.6413 33.6107 22.7303 33.5646 22.8 33.5413C22.8649 33.5197 22.9059 33.52 22.9063 33.52V35.52ZM24.3863 34.04V20.36H22.3863V34.04H24.3863ZM24.3863 20.36C24.3863 20.1141 24.447 20.1134 24.3934 20.1671C24.3397 20.2208 24.3404 20.16 24.5863 20.16V18.16C24.0321 18.16 23.4328 18.2992 22.9791 18.7529C22.5255 19.2066 22.3863 19.8059 22.3863 20.36H24.3863ZM24.5863 20.16H28.4263V18.16H24.5863V20.16ZM28.4263 20.16C28.6721 20.16 28.6728 20.2208 28.6191 20.1671C28.5655 20.1134 28.6263 20.1141 28.6263 20.36H30.6263C30.6263 19.8059 30.487 19.2066 30.0334 18.7529C29.5797 18.2992 28.9804 18.16 28.4263 18.16V20.16ZM28.6263 20.36V34.04H30.6263V20.36H28.6263ZM28.6263 34.04C28.6263 34.3541 28.7055 34.7734 29.0391 35.1071C29.3728 35.4408 29.7921 35.52 30.1063 35.52V33.52C30.1066 33.52 30.1476 33.5197 30.2125 33.5413C30.2822 33.5646 30.3712 33.6107 30.4534 33.6929C30.5355 33.7751 30.5817 33.8641 30.6049 33.9338C30.6266 33.9986 30.6263 34.0396 30.6263 34.04H28.6263ZM30.1063 35.52H44.1463V33.52H30.1063V35.52ZM44.1463 35.52C44.3921 35.52 44.3928 35.5808 44.3391 35.5271C44.2855 35.4734 44.3463 35.4741 44.3463 35.72H46.3463C46.3463 35.1659 46.207 34.5666 45.7534 34.1129C45.2997 33.6592 44.7004 33.52 44.1463 33.52V35.52ZM44.3463 35.72V38.72H46.3463V35.72H44.3463ZM110.911 11.48L110.204 10.7729L110.204 10.7729L110.911 11.48ZM126.991 11.48L126.191 12.08L126.277 12.1943L126.391 12.28L126.991 11.48ZM126.991 94.64L127.698 95.3471L127.698 95.3471L126.991 94.64ZM110.911 94.64L110.111 95.24L110.197 95.3543L110.311 95.44L110.911 94.64ZM110.311 89.24L109.864 90.1344L110.075 90.24H110.311V89.24ZM109.831 89.36L109.124 88.6529L109.077 88.7001L109.036 88.7531L109.831 89.36ZM81.5113 91.28L80.8962 92.0685L80.9038 92.0744L81.5113 91.28ZM72.8713 78.44L73.8227 78.1322L73.8217 78.1293L72.8713 78.44ZM72.9913 49.04L72.0502 48.7018L72.0472 48.7101L72.0444 48.7184L72.9913 49.04ZM81.6313 36.92L82.2339 37.718L82.2363 37.7162L81.6313 36.92ZM109.831 38.36L110.663 37.8053L110.639 37.7692L110.612 37.7353L109.831 38.36ZM110.311 38.6L109.864 37.7056L109.864 37.7056L110.311 38.6ZM108.031 76.28L108.896 76.7826L108.904 76.7692L108.911 76.7555L108.031 76.28ZM107.791 51.56L108.657 51.0589L108.653 51.052L107.791 51.56ZM91.2313 51.56L92.0731 52.0997L92.0781 52.0919L92.0829 52.0841L91.2313 51.56ZM90.7513 76.28L89.8659 76.7448L89.8759 76.764L89.8867 76.7826L90.7513 76.28ZM111.551 12.44C111.551 12.2543 111.599 12.2064 111.618 12.1871L110.204 10.7729C109.743 11.2336 109.551 11.8257 109.551 12.44H111.551ZM111.618 12.1871C111.778 12.0278 111.892 12 111.991 12V9.99999C111.29 9.99999 110.685 10.2922 110.204 10.7729L111.618 12.1871ZM111.991 12H126.031V9.99999H111.991V12ZM126.031 12C126.095 12 126.119 12.0117 126.124 12.0144C126.13 12.0172 126.153 12.0294 126.191 12.08L127.791 10.88C127.362 10.3082 126.746 9.99999 126.031 9.99999V12ZM126.391 12.28C126.442 12.318 126.454 12.3417 126.457 12.3472C126.46 12.3527 126.471 12.3767 126.471 12.44H128.471C128.471 11.7252 128.163 11.1089 127.591 10.68L126.391 12.28ZM126.471 12.44V93.56H128.471V12.44H126.471ZM126.471 93.56C126.471 93.6591 126.443 93.7736 126.284 93.9329L127.698 95.3471C128.179 94.8664 128.471 94.2609 128.471 93.56H126.471ZM126.284 93.9329C126.265 93.9522 126.217 94 126.031 94V96C126.646 96 127.238 95.8078 127.698 95.3471L126.284 93.9329ZM126.031 94H111.991V96H126.031V94ZM111.991 94C111.808 94 111.658 93.9502 111.511 93.84L110.311 95.44C110.804 95.8098 111.375 96 111.991 96V94ZM111.711 94.04C111.601 93.8931 111.551 93.7436 111.551 93.56H109.551C109.551 94.1764 109.741 94.7469 110.111 95.24L111.711 94.04ZM111.551 93.56V89.6H109.551V93.56H111.551ZM111.551 89.6C111.551 89.4005 111.524 89.0759 111.323 88.7753C111.075 88.4031 110.683 88.24 110.311 88.24V90.24C110.226 90.24 110.102 90.2235 109.969 90.1569C109.832 90.0883 109.728 89.9883 109.659 89.8847C109.539 89.7041 109.551 89.5595 109.551 89.6H111.551ZM110.758 88.3456C110.484 88.2086 110.161 88.1569 109.829 88.2399C109.519 88.3172 109.287 88.4905 109.124 88.6529L110.538 90.0671C110.536 90.0695 110.463 90.1428 110.314 90.1801C110.142 90.2231 109.978 90.1914 109.864 90.1344L110.758 88.3456ZM109.036 88.7531C105.877 92.8899 101.579 94.96 96.0312 94.96V96.96C102.163 96.96 107.065 94.6301 110.626 89.9669L109.036 88.7531ZM96.0312 94.96C90.6298 94.96 86.0083 93.46 82.1187 90.4856L80.9038 92.0744C85.1742 95.34 90.2327 96.96 96.0312 96.96V94.96ZM82.1263 90.4915C78.3035 87.5097 75.5292 83.407 73.8227 78.1322L71.9198 78.7478C73.7333 84.353 76.719 88.8103 80.8962 92.0685L82.1263 90.4915ZM73.8217 78.1293C72.5018 74.0918 71.8313 69.3607 71.8313 63.92H69.8313C69.8313 69.5193 70.5207 74.4682 71.9208 78.7507L73.8217 78.1293ZM71.8313 63.92C71.8313 58.3214 72.5413 53.4745 73.9381 49.3616L72.0444 48.7184C70.5612 53.0855 69.8313 58.1586 69.8313 63.92H71.8313ZM73.9323 49.3782C75.7139 44.4207 78.4854 40.5485 82.2339 37.718L81.0286 36.122C76.9371 39.2115 73.9486 43.4193 72.0502 48.7018L73.9323 49.3782ZM82.2363 37.7162C86.0351 34.8291 90.7329 33.36 96.3913 33.36V31.36C90.3696 31.36 85.2274 32.9309 81.0262 36.1238L82.2363 37.7162ZM96.3913 33.36C101.89 33.36 106.065 35.2535 109.05 38.9847L110.612 37.7353C107.197 33.4665 102.412 31.36 96.3913 31.36V33.36ZM108.999 38.9147C109.123 39.0998 109.321 39.3428 109.624 39.4944C109.986 39.6752 110.397 39.6752 110.758 39.4944L109.864 37.7056C109.946 37.6644 110.058 37.63 110.191 37.63C110.324 37.63 110.436 37.6644 110.518 37.7056C110.662 37.7772 110.7 37.8602 110.663 37.8053L108.999 38.9147ZM110.758 39.4944C111.374 39.1867 111.551 38.5878 111.551 38.12H109.551C109.551 38.1353 109.548 38.0707 109.597 37.9728C109.654 37.8593 109.751 37.7623 109.864 37.7056L110.758 39.4944ZM111.551 38.12V12.44H109.551V38.12H111.551ZM108.911 76.7555C110.621 73.5928 111.431 69.3667 111.431 64.16H109.431C109.431 69.1933 108.642 73.0472 107.152 75.8045L108.911 76.7555ZM111.431 64.16C111.431 58.7092 110.539 54.311 108.657 51.059L106.926 52.061C108.563 54.889 109.431 58.8908 109.431 64.16H111.431ZM108.653 51.052C106.639 47.638 103.638 45.88 99.7513 45.88V47.88C102.905 47.88 105.263 49.242 106.93 52.068L108.653 51.052ZM99.7513 45.88C95.6552 45.88 92.4874 47.6108 90.3796 51.0359L92.0829 52.0841C93.8151 49.2692 96.3273 47.88 99.7513 47.88V45.88ZM90.3894 51.0203C88.2498 54.3581 87.2313 58.8096 87.2313 64.28H89.2313C89.2313 59.0304 90.2127 55.0019 92.0731 52.0997L90.3894 51.0203ZM87.2313 64.28C87.2313 69.1909 88.09 73.3622 89.8659 76.7448L91.6366 75.8152C90.0525 72.7978 89.2313 68.9691 89.2313 64.28H87.2313ZM89.8867 76.7826C92.0624 80.5248 95.3485 82.44 99.6313 82.44V80.44C96.074 80.44 93.4401 78.9152 91.6158 75.7774L89.8867 76.7826ZM99.6313 82.44C103.631 82.44 106.74 80.4913 108.896 76.7826L107.167 75.7774C105.323 78.9487 102.832 80.44 99.6313 80.44V82.44Z" fill="black"/>
<line x1="0.848119" y1="12.0559" x2="128.848" y2="2.05592" stroke="#777" stroke-width="3.9"/>
<line x1="4" y1="95.25" x2="129" y2="95.25" stroke="#777" stroke-width="3.5"/>
<path fill-rule="evenodd" clip-rule="evenodd" d="M237.755 13.5957H242.141C247.577 13.5957 252 17.1042 252 21.4164C252 25.6755 247.687 29.1505 242.343 29.2367C237.812 41.3303 226.476 51.1321 211.639 55.7608C209.634 61.8163 206.352 67.5104 201.877 72.6974L199.444 87.2053H202.638C207.271 87.2053 211.041 90.1959 211.041 93.8714C211.041 95.5966 209.271 97 207.097 97H192.335C189.534 97 187.256 95.1925 187.256 92.9706L187.255 92.2384C186.586 92.6265 185.783 92.8391 184.938 92.8391H184.937C183.883 92.8391 182.893 92.5131 182.148 91.9217L171.71 83.6416C169.73 82.0707 169.73 79.5147 171.71 77.9437L187.222 65.6377L187.216 61.2497C180.292 64.4398 172.448 66.1175 164.382 66.1175C161.03 66.1175 157.699 65.8189 154.449 65.2428C152.96 67.6465 151.244 69.9737 149.325 72.1812L151.856 87.2053H155.792C160.426 87.2053 164.195 90.1959 164.195 93.8714C164.195 95.5966 162.425 97 160.251 97H145.489C145.184 97 144.883 96.9768 144.586 96.9347C144.327 96.9772 144.059 97 143.784 97H129.022C126.221 97 123.943 95.1925 123.943 92.9706V90.0814L121.017 71.899C120.997 71.7783 120.994 71.6565 121.008 71.5351L123.389 50.0122V43.4274C121.423 45.0978 120.287 47.3148 120.287 49.6967V59.9784C120.287 60.9174 119.327 61.6787 118.143 61.6787C116.959 61.6787 116 60.9174 116 59.9784V49.6967C116 45.1268 119.046 40.998 124.006 38.7553C124.272 37.9276 124.648 37.1121 125.185 36.4332C125.797 35.3619 127.208 33.4414 128.608 31.5579L128.614 31.5501C128.966 31.077 129.269 30.6693 129.384 30.5039L141.443 13.1511C145.162 7.79905 149.78 7.00021 152.201 7.00021C154.623 7.00021 159.24 7.79947 162.96 13.1511L168.032 20.4496L173.105 13.1509C176.824 7.79884 181.441 7 183.863 7C186.284 7 190.902 7.79905 194.62 13.1509L206.68 30.5037L206.705 30.5385C209.647 28.9444 211.464 26.2828 211.464 23.3881V19.0049C211.464 17.3775 211.911 15.8323 212.705 14.4376L211.588 13.4624C210.792 12.7672 210.857 11.6919 211.733 11.0604C212.609 10.429 213.965 10.4803 214.761 11.1752L215.138 11.5048C217.705 9.2762 221.397 7.87554 225.493 7.87554C230.628 7.87554 235.297 10.087 237.755 13.5957ZM144.966 71.9751C144.894 71.5495 145.028 71.1179 145.341 70.7675C147.166 68.7218 148.804 66.5613 150.232 64.3268C148.06 63.764 145.94 63.0732 143.895 62.2552C142.322 64.5447 140.557 66.7516 138.748 68.8794V71.4679L144.285 88.4953C146.284 89.6591 147.612 91.5061 147.719 93.5992H159.894C159.719 91.9254 157.946 90.6057 155.792 90.6057H149.98C148.906 90.6057 147.997 89.975 147.855 89.1305L144.966 71.9751ZM139.39 87.2063C139.407 87.2068 139.423 87.2072 139.44 87.2074L135.744 75.8427L135.668 87.2051H139.326C139.347 87.2051 139.369 87.2057 139.39 87.2063ZM174.741 81.2367L184.928 89.3174C185.558 88.7284 185.9 87.9894 185.899 87.2083C185.899 86.3361 185.472 85.5162 184.694 84.8998L180.705 81.7356C180.268 81.389 180.041 80.9101 180.082 80.421C180.123 79.9321 180.428 79.4807 180.918 79.183L187.233 75.3496L187.227 70.4417L174.741 80.3476C174.432 80.5929 174.432 80.9916 174.741 81.2367ZM187.239 79.6289L185.468 80.7042L187.242 82.1118L187.239 79.6289ZM240.717 25.8373H242.141C245.213 25.8373 247.713 23.854 247.713 21.4164C247.713 18.9792 245.213 16.9963 242.141 16.9963H236.422C235.565 16.9963 234.79 16.5909 234.452 15.9657C232.913 13.117 229.397 11.2761 225.493 11.2761C220.12 11.2761 215.75 14.7433 215.75 19.0047V23.3875C215.75 28.1906 212.16 32.5327 206.604 34.449C206.075 34.6315 205.477 34.6368 204.943 34.465C204.409 34.2931 203.985 33.9578 203.766 33.5349C203.523 33.0646 203.24 32.597 202.926 32.1456L190.866 14.7922C188.926 12.001 186.373 10.4002 183.862 10.4002C181.35 10.4002 178.797 12.001 176.858 14.7922L169.909 24.7919C169.532 25.3343 168.812 25.6713 168.032 25.6713C167.251 25.6713 166.532 25.3345 166.155 24.7919L159.206 14.7924C157.266 12.0012 154.713 10.4004 152.201 10.4004C149.69 10.4004 147.137 12.0012 145.197 14.7924L133.138 32.1452C133.002 32.3405 132.74 32.6933 132.38 33.1785L132.301 33.2844C131.339 34.579 129.548 36.9886 129.045 37.9156C128.993 38.0121 128.93 38.1044 128.856 38.1916C127.891 39.331 127.644 42.0364 127.675 43.1684C127.676 43.1806 127.676 43.1931 127.676 43.2055V50.0861C127.676 50.1359 127.673 50.1854 127.668 50.2349L125.298 71.6495L128.212 89.7578C128.224 89.8292 128.23 89.9013 128.23 89.9731V92.9704C128.23 93.317 128.585 93.599 129.022 93.599H143.428C143.253 91.9252 141.48 90.6055 139.326 90.6055H133.514C132.943 90.6055 132.396 90.4249 131.994 90.1042C131.592 89.7835 131.367 89.3485 131.37 88.8961L131.485 71.7408C131.488 71.3918 131.625 71.0519 131.88 70.7673C135.118 67.1389 138.497 63.2551 141.09 59.181C141.354 58.7657 141.821 58.4547 142.383 58.32C142.944 58.1856 143.551 58.2391 144.061 58.4688C150.235 61.2478 157.262 62.7167 164.383 62.7167C172.438 62.7167 180.247 60.8704 186.966 57.3771C187.315 57.1956 187.723 57.0989 188.141 57.0989H189.357C190.54 57.0989 191.499 57.8594 191.5 58.7977L191.543 92.9689C191.543 93.3175 191.898 93.5994 192.335 93.5994H206.74C206.565 91.9257 204.792 90.6059 202.638 90.6059H196.997C196.379 90.6059 195.792 90.3943 195.385 90.0258C194.978 89.6572 194.791 89.1673 194.873 88.6814L197.747 71.5326C197.834 71.0161 198.207 70.5789 198.731 70.3174C202.925 65.3435 205.96 59.8836 207.755 54.0805C207.924 53.5318 208.427 53.0853 209.096 52.8902C223.661 48.6364 234.708 38.9974 238.644 27.1059C238.891 26.3582 239.743 25.8373 240.717 25.8373ZM226.603 15.2958C226.603 16.0212 225.862 16.6092 224.948 16.6092C224.033 16.6092 223.292 16.0212 223.292 15.2958C223.292 14.5704 224.033 13.9824 224.948 13.9824C225.862 13.9824 226.603 14.5704 226.603 15.2958Z" fill="black"/>
</svg>
