<svg width="353" height="61" viewBox="0 0 353 61" fill="none" xmlns="http://www.w3.org/2000/svg">
<path d="M34.6854 20.666C34.6854 21.0793 34.4787 21.286 34.0654 21.286H27.0594C26.894 21.286 26.8114 21.3687 26.8114 21.534V39.824C26.8114 41.808 27.2454 43.2133 28.1134 44.04C29.0227 44.8253 30.428 45.218 32.3294 45.218H33.8794C34.2927 45.218 34.4994 45.4247 34.4994 45.838V48.38C34.4994 48.7933 34.2927 49 33.8794 49C33.3834 49.0413 32.6187 49.062 31.5854 49.062C28.6094 49.062 26.3567 48.504 24.8274 47.388C23.298 46.272 22.5334 44.2053 22.5334 41.188V21.534C22.5334 21.3687 22.4507 21.286 22.2854 21.286H18.5034C18.09 21.286 17.8834 21.0793 17.8834 20.666V18.248C17.8834 17.8347 18.09 17.628 18.5034 17.628H22.2854C22.4507 17.628 22.5334 17.5453 22.5334 17.38V10.188C22.5334 9.77466 22.74 9.568 23.1534 9.568H26.1914C26.6047 9.568 26.8114 9.77466 26.8114 10.188V17.38C26.8114 17.5453 26.894 17.628 27.0594 17.628H34.0654C34.4787 17.628 34.6854 17.8347 34.6854 18.248V20.666ZM54.2531 49.496C51.2771 49.496 48.7145 48.7313 46.5651 47.202C44.4158 45.6727 42.9278 43.5647 42.1011 40.878C41.5225 38.9767 41.2331 36.4347 41.2331 33.252C41.2331 30.0693 41.5225 27.548 42.1011 25.688C42.8865 23.0427 44.3538 20.9553 46.5031 19.426C48.6525 17.8967 51.2565 17.132 54.3151 17.132C57.2498 17.132 59.7712 17.8967 61.8792 19.426C64.0285 20.9553 65.4958 23.022 66.2811 25.626C66.8598 27.4033 67.1492 29.9453 67.1492 33.252C67.1492 36.6 66.8598 39.142 66.2811 40.878C65.4958 43.5647 64.0285 45.6727 61.8792 47.202C59.7712 48.7313 57.2291 49.496 54.2531 49.496ZM54.2531 45.652C56.2371 45.652 57.9318 45.1147 59.3371 44.04C60.7425 42.924 61.6932 41.436 62.1891 39.576C62.5611 38.088 62.7472 36.0007 62.7472 33.314C62.7472 30.586 62.5818 28.4987 62.2511 27.052C61.7551 25.192 60.7838 23.7247 59.3371 22.65C57.9318 21.534 56.2165 20.976 54.1911 20.976C52.1658 20.976 50.4505 21.534 49.0451 22.65C47.6398 23.7247 46.6891 25.192 46.1931 27.052C45.8625 28.4987 45.6971 30.586 45.6971 33.314C45.6971 36.042 45.8625 38.1293 46.1931 39.576C46.6478 41.436 47.5778 42.924 48.9831 44.04C50.4298 45.1147 52.1865 45.652 54.2531 45.652ZM95.0443 18.248C95.0443 17.8347 95.251 17.628 95.6643 17.628H98.8263C99.2396 17.628 99.4463 17.8347 99.4463 18.248V48.38C99.4463 48.7933 99.2396 49 98.8263 49H95.6643C95.251 49 95.0443 48.7933 95.0443 48.38V45.714C95.0443 45.6313 95.003 45.5693 94.9203 45.528C94.8376 45.4867 94.7756 45.5073 94.7343 45.59C92.9983 48.1527 90.2496 49.434 86.4883 49.434C84.5043 49.434 82.665 49.0413 80.9703 48.256C79.317 47.4293 77.9943 46.2513 77.0023 44.722C76.0516 43.1927 75.5763 41.3533 75.5763 39.204V18.248C75.5763 17.8347 75.783 17.628 76.1963 17.628H79.3583C79.7716 17.628 79.9783 17.8347 79.9783 18.248V37.902C79.9783 40.258 80.6396 42.1387 81.9623 43.544C83.285 44.908 85.083 45.59 87.3563 45.59C89.7123 45.59 91.5723 44.8873 92.9363 43.482C94.3416 42.0767 95.0443 40.2167 95.0443 37.902V18.248ZM121.961 17.318C123.325 17.318 124.503 17.5867 125.495 18.124C125.825 18.2893 125.949 18.558 125.867 18.93L125.185 21.968C125.061 22.3813 124.792 22.5053 124.379 22.34C123.676 22.0507 122.87 21.906 121.961 21.906L121.155 21.968C119.005 22.0507 117.228 22.8567 115.823 24.386C114.417 25.874 113.715 27.7753 113.715 30.09V48.38C113.715 48.7933 113.508 49 113.095 49H109.933C109.519 49 109.313 48.7933 109.313 48.38V18.248C109.313 17.8347 109.519 17.628 109.933 17.628H113.095C113.508 17.628 113.715 17.8347 113.715 18.248V22.03C113.715 22.154 113.735 22.2367 113.777 22.278C113.859 22.278 113.921 22.2367 113.963 22.154C114.831 20.6247 115.926 19.4467 117.249 18.62C118.613 17.752 120.183 17.318 121.961 17.318ZM142.625 17.132C146.345 17.132 149.218 18.0827 151.243 19.984C153.269 21.8853 154.281 24.4067 154.281 27.548V48.38C154.281 48.7933 154.075 49 153.661 49H150.499C150.086 49 149.879 48.7933 149.879 48.38V45.838C149.879 45.7553 149.838 45.6933 149.755 45.652C149.714 45.6107 149.652 45.6313 149.569 45.714C148.536 46.954 147.193 47.9047 145.539 48.566C143.886 49.186 142.047 49.496 140.021 49.496C137.087 49.496 134.627 48.752 132.643 47.264C130.659 45.776 129.667 43.5027 129.667 40.444C129.667 37.344 130.783 34.9053 133.015 33.128C135.289 31.3093 138.43 30.4 142.439 30.4H149.631C149.797 30.4 149.879 30.3173 149.879 30.152V27.796C149.879 25.688 149.28 24.0347 148.081 22.836C146.924 21.596 145.105 20.976 142.625 20.976C140.641 20.976 139.029 21.3687 137.789 22.154C136.549 22.898 135.785 23.952 135.495 25.316C135.371 25.7293 135.123 25.9153 134.751 25.874L131.403 25.44C130.949 25.3573 130.763 25.192 130.845 24.944C131.176 22.6293 132.416 20.7487 134.565 19.302C136.715 17.8553 139.401 17.132 142.625 17.132ZM140.889 45.714C143.328 45.714 145.436 45.1147 147.213 43.916C148.991 42.676 149.879 41.0227 149.879 38.956V34.12C149.879 33.9547 149.797 33.872 149.631 33.872H143.121C140.393 33.872 138.203 34.43 136.549 35.546C134.896 36.662 134.069 38.212 134.069 40.196C134.069 42.0147 134.689 43.3993 135.929 44.35C137.211 45.2593 138.864 45.714 140.889 45.714ZM181.483 6.344C181.483 6.13733 181.545 5.972 181.669 5.848C181.835 5.68266 182.021 5.6 182.227 5.6H189.481C189.688 5.6 189.853 5.68266 189.977 5.848C190.143 5.972 190.225 6.13733 190.225 6.344V48.256C190.225 48.4627 190.143 48.6487 189.977 48.814C189.853 48.938 189.688 49 189.481 49H182.227C182.021 49 181.835 48.938 181.669 48.814C181.545 48.6487 181.483 48.4627 181.483 48.256V46.21C181.483 46.086 181.442 46.024 181.359 46.024C181.277 45.9827 181.194 46.0033 181.111 46.086C179.375 48.3593 176.999 49.496 173.981 49.496C171.088 49.496 168.587 48.69 166.479 47.078C164.413 45.466 162.925 43.2547 162.015 40.444C161.313 38.2947 160.961 35.794 160.961 32.942C160.961 30.0073 161.333 27.4447 162.077 25.254C163.028 22.6087 164.516 20.5213 166.541 18.992C168.608 17.4213 171.15 16.636 174.167 16.636C177.143 16.636 179.458 17.6693 181.111 19.736C181.194 19.86 181.277 19.9013 181.359 19.86C181.442 19.8187 181.483 19.736 181.483 19.612V6.344ZM180.181 39.328C181.008 37.7987 181.421 35.7113 181.421 33.066C181.421 30.2967 180.967 28.1267 180.057 26.556C179.107 24.944 177.722 24.138 175.903 24.138C173.961 24.138 172.493 24.944 171.501 26.556C170.468 28.168 169.951 30.3587 169.951 33.128C169.951 35.608 170.385 37.6747 171.253 39.328C172.287 41.1053 173.816 41.994 175.841 41.994C177.701 41.994 179.148 41.1053 180.181 39.328ZM225.033 29.78C225.281 31.3507 225.363 33.1073 225.281 35.05C225.239 35.546 224.971 35.794 224.475 35.794H205.317C205.069 35.794 204.986 35.8973 205.069 36.104C205.193 36.9307 205.42 37.7573 205.751 38.584C206.825 40.8987 209.016 42.056 212.323 42.056C214.968 42.0147 217.055 40.94 218.585 38.832C218.75 38.584 218.936 38.46 219.143 38.46C219.267 38.46 219.411 38.5427 219.577 38.708L224.041 43.11C224.247 43.3167 224.351 43.5027 224.351 43.668C224.351 43.7507 224.268 43.916 224.103 44.164C222.739 45.8587 220.982 47.1813 218.833 48.132C216.683 49.0413 214.327 49.496 211.765 49.496C208.21 49.496 205.193 48.69 202.713 47.078C200.274 45.466 198.517 43.2133 197.443 40.32C196.575 38.2533 196.141 35.546 196.141 32.198C196.141 29.9247 196.451 27.92 197.071 26.184C198.021 23.2493 199.675 20.914 202.031 19.178C204.428 17.442 207.259 16.574 210.525 16.574C214.658 16.574 217.965 17.7727 220.445 20.17C222.966 22.5673 224.495 25.7707 225.033 29.78ZM210.587 24.138C207.983 24.138 206.267 25.3573 205.441 27.796C205.275 28.3333 205.131 28.9947 205.007 29.78C205.007 29.9867 205.11 30.09 205.317 30.09H216.043C216.291 30.09 216.373 29.9867 216.291 29.78C216.084 28.5813 215.981 28.0027 215.981 28.044C215.609 26.804 214.947 25.8533 213.997 25.192C213.087 24.4893 211.951 24.138 210.587 24.138ZM242.955 49.434C240.185 49.434 237.767 49.0413 235.701 48.256C233.634 47.4707 232.022 46.3753 230.865 44.97C229.749 43.5647 229.191 41.9733 229.191 40.196V39.576C229.191 39.3693 229.253 39.204 229.377 39.08C229.542 38.9147 229.728 38.832 229.935 38.832H236.817C237.023 38.832 237.189 38.9147 237.313 39.08C237.478 39.204 237.561 39.3693 237.561 39.576V39.638C237.561 40.5473 238.057 41.3327 239.049 41.994C240.082 42.614 241.363 42.924 242.893 42.924C244.298 42.924 245.435 42.6553 246.303 42.118C247.171 41.5393 247.605 40.8367 247.605 40.01C247.605 39.266 247.233 38.708 246.489 38.336C245.745 37.964 244.525 37.5713 242.831 37.158C240.888 36.662 239.359 36.1867 238.243 35.732C235.597 34.8227 233.489 33.7067 231.919 32.384C230.348 31.0613 229.563 29.16 229.563 26.68C229.563 23.6213 230.741 21.2033 233.097 19.426C235.494 17.6073 238.656 16.698 242.583 16.698C245.228 16.698 247.543 17.132 249.527 18C251.511 18.8267 253.04 20.0047 254.115 21.534C255.231 23.0633 255.789 24.7993 255.789 26.742C255.789 26.9487 255.706 27.1347 255.541 27.3C255.417 27.424 255.251 27.486 255.045 27.486H248.411C248.204 27.486 248.018 27.424 247.853 27.3C247.729 27.1347 247.667 26.9487 247.667 26.742C247.667 25.8327 247.191 25.068 246.241 24.448C245.331 23.828 244.112 23.518 242.583 23.518C241.219 23.518 240.103 23.766 239.235 24.262C238.367 24.758 237.933 25.44 237.933 26.308C237.933 27.1347 238.346 27.7547 239.173 28.168C240.041 28.5813 241.467 29.0153 243.451 29.47C243.905 29.594 244.422 29.7387 245.001 29.904C245.579 30.028 246.199 30.1933 246.861 30.4C249.795 31.268 252.11 32.384 253.805 33.748C255.499 35.112 256.347 37.096 256.347 39.7C256.347 42.7587 255.127 45.156 252.689 46.892C250.291 48.5867 247.047 49.434 242.955 49.434ZM289.576 29.78C289.824 31.3507 289.906 33.1073 289.824 35.05C289.782 35.546 289.514 35.794 289.018 35.794H269.86C269.612 35.794 269.529 35.8973 269.612 36.104C269.736 36.9307 269.963 37.7573 270.294 38.584C271.368 40.8987 273.559 42.056 276.866 42.056C279.511 42.0147 281.598 40.94 283.128 38.832C283.293 38.584 283.479 38.46 283.686 38.46C283.81 38.46 283.954 38.5427 284.12 38.708L288.584 43.11C288.79 43.3167 288.894 43.5027 288.894 43.668C288.894 43.7507 288.811 43.916 288.646 44.164C287.282 45.8587 285.525 47.1813 283.376 48.132C281.226 49.0413 278.87 49.496 276.308 49.496C272.753 49.496 269.736 48.69 267.256 47.078C264.817 45.466 263.06 43.2133 261.986 40.32C261.118 38.2533 260.684 35.546 260.684 32.198C260.684 29.9247 260.994 27.92 261.614 26.184C262.564 23.2493 264.218 20.914 266.574 19.178C268.971 17.442 271.802 16.574 275.068 16.574C279.201 16.574 282.508 17.7727 284.988 20.17C287.509 22.5673 289.038 25.7707 289.576 29.78ZM275.13 24.138C272.526 24.138 270.81 25.3573 269.984 27.796C269.818 28.3333 269.674 28.9947 269.55 29.78C269.55 29.9867 269.653 30.09 269.86 30.09H280.586C280.834 30.09 280.916 29.9867 280.834 29.78C280.627 28.5813 280.524 28.0027 280.524 28.044C280.152 26.804 279.49 25.8533 278.54 25.192C277.63 24.4893 276.494 24.138 275.13 24.138ZM311.083 16.698C312.571 16.698 313.749 16.9873 314.617 17.566C314.948 17.7313 315.072 18.0413 314.989 18.496L313.687 25.564C313.646 26.06 313.357 26.2047 312.819 25.998C312.199 25.7913 311.476 25.688 310.649 25.688C310.319 25.688 309.864 25.7293 309.285 25.812C307.797 25.936 306.537 26.494 305.503 27.486C304.47 28.4367 303.953 29.718 303.953 31.33V48.256C303.953 48.4627 303.871 48.6487 303.705 48.814C303.581 48.938 303.416 49 303.209 49H295.955C295.749 49 295.563 48.938 295.397 48.814C295.273 48.6487 295.211 48.4627 295.211 48.256V17.876C295.211 17.6693 295.273 17.504 295.397 17.38C295.563 17.2147 295.749 17.132 295.955 17.132H303.209C303.416 17.132 303.581 17.2147 303.705 17.38C303.871 17.504 303.953 17.6693 303.953 17.876V20.232C303.953 20.356 303.995 20.4387 304.077 20.48C304.16 20.5213 304.222 20.5007 304.263 20.418C305.958 17.938 308.231 16.698 311.083 16.698ZM337.599 23.394C337.599 23.6007 337.516 23.7867 337.351 23.952C337.227 24.076 337.062 24.138 336.855 24.138H330.903C330.696 24.138 330.593 24.2413 330.593 24.448V37.592C330.593 38.956 330.862 39.9687 331.399 40.63C331.978 41.2913 332.887 41.622 334.127 41.622H336.173C336.38 41.622 336.545 41.7047 336.669 41.87C336.834 41.994 336.917 42.1593 336.917 42.366V48.256C336.917 48.7107 336.669 48.9793 336.173 49.062C334.437 49.1447 333.197 49.186 332.453 49.186C329.022 49.186 326.46 48.628 324.765 47.512C323.07 46.3547 322.202 44.2053 322.161 41.064V24.448C322.161 24.2413 322.058 24.138 321.851 24.138H318.317C318.11 24.138 317.924 24.076 317.759 23.952C317.635 23.7867 317.573 23.6007 317.573 23.394V17.876C317.573 17.6693 317.635 17.504 317.759 17.38C317.924 17.2147 318.11 17.132 318.317 17.132H321.851C322.058 17.132 322.161 17.0287 322.161 16.822V9.444C322.161 9.23733 322.223 9.072 322.347 8.948C322.512 8.78266 322.698 8.7 322.905 8.7H329.849C330.056 8.7 330.221 8.78266 330.345 8.948C330.51 9.072 330.593 9.23733 330.593 9.444V16.822C330.593 17.0287 330.696 17.132 330.903 17.132H336.855C337.062 17.132 337.227 17.2147 337.351 17.38C337.516 17.504 337.599 17.6693 337.599 17.876V23.394ZM347.698 49.248C346.292 49.248 345.114 48.7933 344.164 47.884C343.254 46.9333 342.8 45.7553 342.8 44.35C342.8 42.9033 343.254 41.7253 344.164 40.816C345.073 39.9067 346.251 39.452 347.698 39.452C349.144 39.452 350.322 39.9067 351.232 40.816C352.141 41.7253 352.596 42.9033 352.596 44.35C352.596 45.7553 352.12 46.9333 351.17 47.884C350.26 48.7933 349.103 49.248 347.698 49.248Z" fill="black"/>
<line y1="60" x2="152" y2="60" stroke="black" stroke-width="2"/>
<line y1="1" x2="152" y2="1" stroke="black" stroke-width="2"/>
</svg>
